<svg height="512" viewBox="0 0 512 512" width="512" xmlns="http://www.w3.org/2000/svg"><g id="Flat"><g fill="#bc8d5d"><path d="m96 280-29.831 193.90128a12.23787 12.23787 0 0 0 12.0956 14.09872 12.23787 12.23787 0 0 0 11.92447-9.48607l45.81093-198.51393z"/><path d="m181.9759 280-29.831 193.90128a12.23787 12.23787 0 0 0 12.0956 14.09872 12.23787 12.23787 0 0 0 11.92447-9.48607l45.81093-198.51393z"/><path d="m306.0241 280 29.831 193.90128a12.23787 12.23787 0 0 1 -12.0956 14.09872 12.23787 12.23787 0 0 1 -11.92447-9.48607l-45.81093-198.51393z"/><path d="m370.0241 280 29.831 193.90128a12.23787 12.23787 0 0 1 -12.0956 14.09872 12.23787 12.23787 0 0 1 -11.92447-9.48607l-45.81093-198.51393z"/></g><path d="m112 216h18.31916a54.37348 54.37348 0 0 0 50.91147-35.28167l50.98285-135.95428a32 32 0 0 1 29.96252-20.76405h109.575a32 32 0 0 1 31.75289 35.96911l-13.5502 108.40162a54.37348 54.37348 0 0 1 -53.95363 47.62927h-.00006a16 16 0 0 0 -16 16v40h-224v-40a16 16 0 0 1 16-16z" fill="#3ea7ff"/><path d="m112 248h160a16 16 0 0 1 16 16v16a0 0 0 0 1 0 0h-192a0 0 0 0 1 0 0v-16a16 16 0 0 1 16-16z" fill="#3ea7ff"/><path d="m120 248h152a16 16 0 0 1 16 16v16a0 0 0 0 1 0 0h-184a0 0 0 0 1 0 0v-16a16 16 0 0 1 16-16z" fill="#87c9ff"/><path d="m403.5 59.97-19.5 156.03h-48a15.99552 15.99552 0 0 0 -16 16v48h-32v-48a15.99552 15.99552 0 0 1 16-16 54.371 54.371 0 0 0 53.95-47.63l8.08-64.58a92.56035 92.56035 0 0 0 .71-11.37 91.55968 91.55968 0 0 0 -30.74-68.42h35.75a31.9957 31.9957 0 0 1 31.75 35.97z" fill="#87c9ff"/><path d="m376 280h-56v-48a16 16 0 0 1 16-16h.00006a54.37348 54.37348 0 0 0 53.9536-47.62927z" fill="#2b7cd4"/><path d="m96 280h-32v-48a16 16 0 0 1 16-16h32a16 16 0 0 0 -16 16z" fill="#87c9ff"/></g></svg>